<?xml version="1.0" encoding="utf-8"?>
<!-- Generator: Adobe Illustrator 23.0.2, SVG Export Plug-In . SVG Version: 6.00 Build 0)  -->
<svg version="1.1" id="图层_3" xmlns="http://www.w3.org/2000/svg" xmlns:xlink="http://www.w3.org/1999/xlink" x="0px" y="0px"
	 viewBox="0 0 595.3 841.9" style="enable-background:new 0 0 595.3 841.9;" xml:space="preserve">
<style type="text/css">
	.st0{fill:#036EB8;}
</style>
<g>
	<path class="st0" d="M326.6,377.4c0-13.4-10.9-24.3-24.3-24.3S278,364,278,377.4c0,13.4,10.9,24.3,24.3,24.3
		S326.6,390.8,326.6,377.4z"/>
	<path class="st0" d="M266.7,406.9c8.5,10.2,21.3,16.7,35.6,16.7c25.5,0,46.2-20.7,46.2-46.2c0-25.5-20.7-46.2-46.2-46.2
		c-14.7,0-27.8,6.9-36.3,17.7c0,0-17.2,0.2-29,0.2c-40.6,0-49.6,6.4-74.6,30.8c-8.8,8.5-23.8,24.1-32.4,32.5
		c-28.4,27.8-29.3,39.9-29.3,79.2c0,54.9,0,166.8,0,198c-53-19.4-91-70.4-91.1-129.9V265.4c0.1-76,62.3-138.2,138.4-138.2h293.9
		c1.9,0,3.8,0.1,5.7,0.1c0,5.7,0,183.3,0,243.2c0,31.5-4,42-20.7,58.6c-7.9,7.8-29.9,29.9-33.7,33.7c-2.2-0.4-4.4-0.7-6.7-0.7
		c-18.4,0-33.4,15-33.4,33.4c0,18.4,15,33.4,33.4,33.4s33.4-15,33.4-33.4c0-1.1-0.2-2.1-0.3-3.2c6.6-6.5,30.8-30.7,38.9-38.8
		c22.7-22.6,29.5-32.5,29.5-80.6c0-53.8,0-201.9,0-237.8c53.6,19.1,92.3,70.5,92.3,130.4v293.9c0,76.1-62.2,138.3-138.2,138.4H158.7
		c0,0,0-142.4,0-206.6c0-21.6,4.8-30.3,19.6-45.1c6.1-6.1,18.4-18.4,24.5-24.5c12.2-12.2,17.7-14.7,38.5-14.7H266.7z"/>
</g>
</svg>
